<svg version="1.2" xmlns="http://www.w3.org/2000/svg" viewBox="0 0 1550 529" width="1550" height="529">
	<title>CURLF_BIG</title>
	<style>
		.s0 { fill: #ffffff } 
	</style>
	<path class="s0" d="m917.2 409.8c0.1 11.7 2.4 23.3 7 34 4.5 10.8 11.2 20.6 19.5 28.8 8.3 8.2 18.1 14.7 29 19.1 10.8 4.4 22.4 6.7 34.1 6.6 6.6 0.1 13.3-0.5 19.9-1.9 6.5-1.3 12.9-3.4 19-6.1 6.1-2.7 11.9-6.1 17.2-10.1 5.4-4 10.3-8.5 14.7-13.6 1.2-1.4 2.5-2.6 4.1-3.7 1.5-1 3.2-1.8 4.9-2.3 1.8-0.5 3.6-0.7 5.5-0.7 1.8 0 3.6 0.4 5.4 0.9q2.2 0.9 4.1 2.4 1.9 1.4 3.2 3.4 1.4 2 2.1 4.2 0.7 2.3 0.6 4.7 0 1.7-0.3 3.4-0.4 1.8-1.1 3.4-0.6 1.6-1.6 3-1 1.5-2.2 2.7c-6 6.6-12.7 12.5-20 17.7-7.3 5.1-15.1 9.5-23.3 13-8.2 3.5-16.8 6.1-25.5 7.8-8.8 1.6-17.7 2.4-26.6 2.1-16.9 0.4-33.7-2.6-49.3-8.9-15.7-6.4-29.8-15.8-41.7-27.8-11.9-12-21.2-26.2-27.4-41.9-6.2-15.7-9.1-32.5-8.6-49.4-0.6-16.6 2.2-33.2 8.1-48.7 6-15.6 15-29.7 26.6-41.7 11.5-12 25.4-21.5 40.7-27.9 15.3-6.5 31.8-9.8 48.4-9.8 70.8 0 117.5 47.4 117.5 119.3 0 12-6.3 18.2-19.4 18.2zm167.8-28.1c-2.1-45.8-30.4-79.7-81.3-79.7-10.7 0.1-21.4 2.1-31.4 6.1-10 3.9-19.2 9.7-27.1 17-7.9 7.3-14.4 16-19.1 25.7-4.7 9.7-7.5 20.2-8.4 30.9zm-209.4 117.2q-2.4 0.2-4.7-0.3-2.3-0.5-4.4-1.7-2-1.1-3.7-2.8-1.6-1.8-2.7-3.9-0.9-2.1-1.6-4.3-0.7-2.2-1.1-4.4-0.5-2.3-0.6-4.6-0.2-2.3-0.1-4.6v-269.8q0-1.6-0.3-3.1-0.3-1.5-1-3-0.6-1.4-1.5-2.7-0.9-1.2-2-2.3-1.3-1.2-2.8-2.1-1.5-0.9-3.2-1.5-1.6-0.6-3.3-0.9-1.8-0.3-3.5-0.2-1.8-0.1-3.5 0.2-1.8 0.2-3.4 0.8-1.7 0.6-3.2 1.5-1.4 1-2.7 2.2-1.2 1-2.1 2.3-0.9 1.3-1.5 2.7-0.6 1.5-0.9 3-0.3 1.5-0.3 3.1v272.2q-0.4 5.4 0 10.8 0.5 5.4 1.8 10.7 1.3 5.2 3.4 10.2 2.2 5 5.1 9.6 2.9 3.3 6.6 5.8 3.6 2.6 7.7 4.2 4.1 1.7 8.5 2.3 4.4 0.6 8.8 0.2 2.1 0.2 4.2 0 2.1-0.2 4.2-0.7 2-0.6 3.9-1.5 1.9-1 3.6-2.2 1.2-1.2 2.1-2.7 0.9-1.4 1.5-3 0.6-1.5 0.9-3.2 0.3-1.7 0.2-3.4 0-1.3-0.2-2.6-0.1-1.2-0.4-2.5-0.3-1.3-0.8-2.5-0.5-1.2-1.1-2.3-0.5-0.8-1.1-1.4-0.7-0.6-1.5-1.1-0.8-0.4-1.7-0.5-0.9-0.1-1.8 0m670.7-303.4q-1-1.3-2.1-2.3-1.2-1-2.5-1.8-1.3-0.9-2.7-1.4-1.5-0.6-3-0.9-1.1-0.3-2.2-0.5-1.1-0.2-2.2-0.4-1.1-0.2-2.2-0.3-1.2-0.2-2.3-0.3-2-0.2-4-0.3-2.1-0.2-4.1-0.2-2-0.1-4.1-0.2-2 0-4 0c-6.2-0.3-12.3 0-18.4 1-6 1-11.9 2.7-17.6 5-5.7 2.4-11.1 5.3-16.1 8.9-5 3.5-9.6 7.6-13.7 12.2-4.4 5.4-8.3 11.2-11.6 17.3-3.3 6.1-6.1 12.5-8.2 19.1-2.1 6.6-3.6 13.4-4.5 20.3-0.8 6.9-1 13.9-0.6 20.8v220.9q0 1.6 0.3 3.2 0.3 1.6 0.9 3.1 0.6 1.4 1.5 2.8 0.9 1.3 2.1 2.4 1.3 1.2 2.7 2.1 1.5 0.9 3.1 1.4 1.6 0.6 3.3 0.9 1.7 0.3 3.4 0.2 1.7 0.1 3.4-0.1 1.7-0.3 3.4-0.9 1.6-0.6 3.1-1.5 1.4-0.9 2.7-2 1.2-1.2 2-2.5 0.9-1.4 1.5-2.8 0.6-1.5 0.9-3.1 0.3-1.6 0.3-3.2v-197.4h54.9q1.5 0.1 3-0.2 1.5-0.2 2.9-0.8 1.4-0.6 2.6-1.4 1.3-0.8 2.4-1.9 1.1-1.1 1.9-2.4 0.9-1.3 1.4-2.8 0.6-1.5 0.9-3 0.2-1.6 0.1-3.1 0.1-1.5-0.2-3-0.2-1.4-0.8-2.8-0.5-1.4-1.3-2.6-0.9-1.2-1.9-2.2-1.1-1.1-2.4-1.9-1.3-0.8-2.7-1.3-1.4-0.5-2.9-0.7-1.5-0.3-3-0.2h-54.8l0.3-4.6c0-16.3 5.4-32.1 15.2-45.1 2.5-2.9 5.3-5.6 8.4-7.8 3.1-2.3 6.5-4.2 10-5.6 3.6-1.5 7.3-2.5 11.1-3.1 3.8-0.5 7.6-0.6 11.5-0.3q6.7-0.1 13.4 0.9 4.7 0.6 9.6 0.6 1.4 0.1 2.9-0.1 1.4-0.3 2.8-0.7 1.3-0.5 2.6-1.2 1.3-0.7 2.4-1.6 1.1-1.1 2-2.5 0.8-1.3 1.4-2.8 0.5-1.5 0.7-3.1 0.2-1.6 0-3.2 0-1.2-0.2-2.4-0.2-1.2-0.6-2.3-0.4-1.2-0.9-2.3-0.5-1.1-1.2-2zm-1341.1 273.7c2-0.1 4.1 0.2 6 0.9 1.9 0.7 3.6 1.8 5.1 3.2 1.5 1.5 2.7 3.2 3.4 5 0.8 1.9 1.2 4 1.2 6q0 1.9-0.4 3.8-0.5 1.9-1.3 3.6-0.8 1.8-2 3.3-1.1 1.6-2.6 2.8c-5.5 5.2-11.4 9.8-17.8 13.7-6.4 4-13.2 7.3-20.2 10-7.1 2.6-14.4 4.5-21.8 5.7-7.4 1.2-15 1.6-22.5 1.3-79.2 0-131.1-54.6-131.1-128 0-73.4 51.9-128 131.1-128 7.2-0.1 14.4 0.5 21.5 1.7 7 1.3 14 3.1 20.7 5.6 6.8 2.5 13.3 5.5 19.5 9.2 6.2 3.6 12 7.8 17.5 12.5q1.5 1.3 2.8 2.9 1.2 1.6 2.1 3.4 0.9 1.8 1.4 3.8 0.4 1.9 0.5 4c-0.1 2.1-0.5 4.1-1.3 6-0.9 1.9-2.1 3.7-3.6 5.1-1.5 1.5-3.3 2.6-5.2 3.4-2 0.7-4.1 1.1-6.2 1-4.7 0-8.4-1-17.8-9.9q-5.2-4.7-11.3-8.3-6-3.7-12.6-6.1-6.6-2.5-13.5-3.7-7-1.2-14-1.1c-57.2 0-93.8 42.7-93.8 98.5 0 55.1 36.1 97.9 93.3 97.9 5.4 0.2 10.8-0.2 16.1-1.1 5.3-0.9 10.5-2.3 15.5-4.2q7.6-2.9 14.4-7.2c4.6-2.9 8.8-6.2 12.7-9.9 3.7-4.1 8.8-6.5 14.2-6.8zm215.2-196.8q-1.7-0.1-3.3 0.2-1.7 0.2-3.3 0.8-1.5 0.5-3 1.3-1.5 0.8-2.8 1.9-1.3 1.1-2.4 2.4-1.1 1.4-1.8 3-0.8 1.6-1.1 3.3-0.4 1.7-0.3 3.5v141.4c0.1 9.1-1.4 18.1-4.2 26.7q-1 2.9-2.2 5.6-1.3 2.8-2.9 5.4-1.5 2.6-3.4 5-1.8 2.4-3.9 4.6-2.1 2.2-4.4 4.2-2.3 2-4.8 3.7-2.5 1.7-5.2 3.2-2.7 1.4-5.5 2.6-3.2 1.3-6.5 2.3-3.4 1-6.8 1.6-3.4 0.6-6.9 0.9-3.4 0.3-6.9 0.2-3.5 0.1-6.9-0.2-3.5-0.3-6.9-0.9-3.4-0.7-6.7-1.6-3.4-1-6.6-2.3-2.8-1.2-5.5-2.7-2.7-1.4-5.2-3.1-2.5-1.7-4.8-3.7-2.3-2-4.5-4.2-2-2.2-3.9-4.6-1.8-2.4-3.3-5-1.6-2.6-2.9-5.4-1.2-2.7-2.2-5.6-1-3.2-1.8-6.5-0.8-3.3-1.4-6.7-0.5-3.4-0.7-6.7-0.3-3.4-0.2-6.8v-141.4q0-1.7-0.3-3.5-0.4-1.7-1.1-3.3-0.8-1.6-1.8-3-1.1-1.3-2.5-2.4-1.3-1.1-2.8-1.9-1.4-0.8-3-1.3-1.6-0.5-3.2-0.8-1.7-0.3-3.3-0.2-1.7-0.1-3.3 0.2-1.7 0.2-3.2 0.8-1.6 0.6-3 1.4-1.4 0.9-2.6 2-1.3 1.1-2.2 2.5-1 1.4-1.6 2.9-0.6 1.6-0.9 3.2-0.3 1.7-0.3 3.4v140.4q0 5 0.4 10 0.3 5 1.1 9.9 0.8 5 1.9 9.8 1.2 4.9 2.8 9.6c4 11.8 10.4 22.5 18.8 31.6q3.2 3.4 6.8 6.5 3.6 3 7.5 5.7 4 2.6 8.2 4.9 4.1 2.2 8.5 3.9 5.1 1.9 10.4 3.4 5.2 1.4 10.6 2.4 5.3 0.9 10.7 1.3 5.4 0.5 10.9 0.4 5.4 0.1 10.7-0.4 5.4-0.4 10.7-1.3 5.2-1 10.4-2.4 5.2-1.5 10.2-3.4 4.4-1.7 8.6-3.9 4.2-2.2 8.1-4.9 3.9-2.6 7.5-5.7 3.6-3.1 6.9-6.5c8.4-9.1 14.8-19.8 19-31.5 4.4-12.7 6.6-26 6.5-39.4v-140.4q0.1-1.7-0.2-3.4-0.3-1.6-1-3.2-0.6-1.5-1.6-2.9-0.9-1.4-2.2-2.5c-3.3-3-7.6-4.6-12-4.4zm386.4 229.6q-0.4-0.8-1.1-1.4-0.6-0.7-1.5-1.1-0.8-0.4-1.7-0.5-0.9-0.1-1.8 0-2.3 0.2-4.6-0.3-2.3-0.5-4.4-1.7-2.1-1.1-3.7-2.8-1.7-1.7-2.8-3.8-0.9-2.2-1.6-4.4-0.7-2.2-1.1-4.4-0.4-2.3-0.6-4.6-0.2-2.3-0.1-4.6v-184.3q0-1.6-0.3-3.1-0.3-1.5-0.9-3-0.6-1.4-1.5-2.7-0.9-1.2-2.1-2.3-1.3-1.2-2.7-2.1-1.5-1-3.2-1.6-1.6-0.6-3.4-0.8-1.7-0.3-3.5-0.2-1.7-0.1-3.5 0.2-1.7 0.2-3.4 0.8-1.6 0.6-3.1 1.6-1.5 0.9-2.8 2.1-1.1 1.1-2 2.3-0.9 1.3-1.6 2.7-0.6 1.5-0.9 3-0.3 1.5-0.3 3.1v33.1q-2.9-4.5-6.1-8.7-3.3-4.2-6.9-8.1-3.6-3.9-7.6-7.5-3.9-3.6-8.2-6.8-6.5-4.5-13.7-8-7.2-3.5-14.9-5.7-7.6-2.3-15.5-3.3-7.9-1-15.9-0.8-6 0-12 0.6-6 0.6-11.9 1.8-5.9 1.3-11.6 3.1-5.8 1.9-11.3 4.4-5.2 2.4-10.2 5.3-5 2.8-9.7 6.2-4.7 3.4-9.1 7.2-4.3 3.8-8.3 8-4.1 4.4-7.7 9.3-3.6 4.8-6.7 9.9-3.2 5.2-5.8 10.6-2.6 5.4-4.7 11-2.3 6.1-4 12.4-1.7 6.3-2.8 12.7-1.2 6.4-1.7 12.9-0.6 6.5-0.5 13-0.1 6.4 0.4 12.9 0.6 6.4 1.7 12.8 1.1 6.4 2.7 12.6 1.7 6.3 3.9 12.4c5.5 15 13.9 28.8 24.7 40.5q4 4.3 8.3 8.1 4.3 3.8 9 7.2 4.6 3.3 9.6 6.2 5 3 10.2 5.3c14.6 6.7 30.5 10 46.5 9.9q8 0.1 15.9-1 7.9-1.1 15.5-3.4 7.6-2.4 14.8-5.9 7.1-3.6 13.6-8.2 4.4-3.3 8.6-7 4.2-3.7 8-7.7 3.8-4 7.3-8.3 3.4-4.4 6.5-9v-1.8q-0.4 5.2 0.1 10.4 0.5 5.2 1.8 10.3 1.3 5 3.4 9.8 2.1 4.8 4.9 9.2 2.9 3.3 6.5 5.9 3.7 2.5 7.8 4.2 4.1 1.6 8.5 2.3 4.4 0.6 8.8 0.2c5.6 0.5 11.3-1.1 15.8-4.5q1.2-1.2 2.1-2.6 0.9-1.4 1.5-3 0.6-1.6 0.9-3.3 0.2-1.6 0.1-3.3 0.1-1.3-0.1-2.6-0.1-1.3-0.4-2.5-0.3-1.3-0.8-2.5-0.5-1.2-1.1-2.3zm-146.1-8.6c-52.9 0-86.1-41.7-86.1-93.2 0-51.5 35.4-93.1 86.1-93.1 11.8 0.4 23.4 3.1 34.1 8.1 10.7 4.9 20.3 11.9 28.3 20.5 8 8.7 14.3 18.8 18.3 29.9 4.1 11.1 5.9 22.8 5.4 34.6 0.8 11.9-0.8 23.7-4.8 34.9-4 11.2-10.2 21.5-18.2 30.2-8.1 8.7-17.8 15.7-28.7 20.5-10.8 4.8-22.5 7.4-34.4 7.6z"/>
	<path class="s0" d="m667.2 241.1q1.8 0.1 3.6-0.1 1.8-0.3 3.5-1 1.7-0.6 3.2-1.7 1.5-1 2.8-2.3c2.8-3.4 4.3-7.7 4.1-12 0-4.7-3.4-19.2-26.8-19.2-9.2-0.1-18.3 0.5-27.3 1.7-9 1.3-18 3.2-26.7 5.9q-13 3.9-25.5 9.9c-8.2 3.9-16.1 8.5-23.6 13.7q-9.1 6.6-17.1 14.5-8.1 8-14.9 16.9-6.8 9-12.3 18.9-5.5 9.8-9.5 20.3v-18.2c0.1-2.3-0.3-4.5-1.1-6.6-0.8-2.1-2.1-4-3.8-5.5-1.6-1.5-3.6-2.7-5.7-3.4-2.2-0.6-4.4-0.8-6.7-0.5q-1.7-0.1-3.4 0.1-1.7 0.3-3.3 0.9-1.7 0.6-3.1 1.5-1.5 0.9-2.8 2.1-1.1 1.1-2 2.4-0.9 1.4-1.5 2.8-0.6 1.5-0.8 3-0.3 1.6-0.3 3.2v223.5q-0.1 1.7 0.3 3.4 0.3 1.8 1 3.3 0.7 1.6 1.7 3 1.1 1.4 2.4 2.6c3.5 2.9 7.8 4.4 12.4 4.3 4.5 0.2 8.9-1.5 12.2-4.4q1.2-1.2 2.2-2.6 1-1.4 1.6-3 0.7-1.6 1-3.2 0.3-1.7 0.2-3.4v-79.9q-0.4-8-0.4-15.9 0-7.9 0.4-15.9 0.4-7.9 1.1-15.8 0.8-7.9 1.9-15.8c4.1-20.7 11.7-40.6 22.4-58.8q3.7-6.4 8.1-12.3 4.4-6 9.4-11.5 5-5.4 10.5-10.3 5.6-4.9 11.6-9.1 4.5-3 9.2-5.6 10.6-5.3 21.8-9.3 11.2-3.9 22.8-6.4 11.6-2.5 23.5-3.6 11.8-1 23.7-0.6zm732 260.9q-0.4-0.8-1.1-1.4-0.6-0.7-1.5-1.1-0.8-0.4-1.7-0.5-0.9-0.1-1.8 0-2.3 0.2-4.6-0.3-2.3-0.5-4.4-1.7-2.1-1.1-3.7-2.8-1.7-1.7-2.8-3.8-0.9-2.2-1.6-4.4-0.7-2.2-1.1-4.4-0.4-2.3-0.6-4.6-0.2-2.3-0.1-4.6v-184.3q0-1.6-0.3-3.1-0.3-1.5-0.9-3-0.6-1.4-1.5-2.7-0.9-1.2-2.1-2.3-1.3-1.2-2.7-2.1-1.5-1-3.2-1.6-1.6-0.6-3.4-0.8-1.7-0.3-3.5-0.2-1.7-0.1-3.5 0.2-1.7 0.2-3.4 0.8-1.6 0.6-3.1 1.6-1.5 0.9-2.8 2.1-1.1 1.1-2 2.3-0.9 1.3-1.6 2.7-0.6 1.5-0.9 3-0.3 1.5-0.3 3.1v33.1q-2.9-4.5-6.1-8.7-3.3-4.2-6.9-8.1-3.6-3.9-7.6-7.5-3.9-3.6-8.2-6.8-6.5-4.5-13.7-8-7.2-3.5-14.8-5.7-7.7-2.3-15.6-3.3-7.9-1-15.9-0.8-6 0-12 0.6-6 0.6-11.9 1.8-5.9 1.3-11.6 3.1-5.7 1.9-11.2 4.4-5.3 2.4-10.3 5.3-5 2.8-9.7 6.2-4.7 3.4-9.1 7.2-4.3 3.8-8.3 8-4.1 4.4-7.7 9.3-3.6 4.8-6.7 9.9-3.2 5.2-5.8 10.6-2.6 5.4-4.7 11-2.3 6.1-4 12.4-1.7 6.3-2.8 12.7-1.2 6.4-1.7 12.9-0.6 6.5-0.5 13-0.1 6.4 0.4 12.9 0.6 6.4 1.7 12.8 1.1 6.4 2.7 12.6 1.7 6.3 3.9 12.4c5.5 15 13.9 28.8 24.7 40.5q3.9 4.3 8.3 8.1 4.3 3.8 8.9 7.2 4.7 3.4 9.7 6.3 5 2.9 10.2 5.3c14.6 6.6 30.5 9.9 46.5 9.8q8 0.2 15.9-1 7.9-1.1 15.5-3.4 7.6-2.4 14.8-5.9 7.1-3.6 13.6-8.2 4.4-3.3 8.6-7 4.2-3.7 8-7.7 3.8-4 7.3-8.3 3.4-4.4 6.5-9v-1.8q-0.3 5.2 0.2 10.4 0.4 5.2 1.8 10.3 1.3 5 3.3 9.8 2.1 4.8 4.9 9.2 2.9 3.3 6.6 5.9 3.6 2.5 7.7 4.2 4.1 1.6 8.5 2.3 4.4 0.6 8.8 0.2c5.6 0.5 11.3-1.1 15.8-4.5q1.2-1.2 2.1-2.6 0.9-1.4 1.5-3 0.6-1.6 0.9-3.3 0.2-1.6 0.1-3.3 0.1-1.3-0.1-2.6-0.1-1.3-0.4-2.5-0.3-1.3-0.8-2.5-0.5-1.2-1.1-2.3zm-146-8.6c-53 0-86.2-41.7-86.2-93.2 0-51.5 35.4-93.1 86.2-93.1 11.7 0.4 23.3 3.1 34 8.1 10.7 4.9 20.4 11.9 28.4 20.5 7.9 8.7 14.2 18.9 18.2 29.9 4.1 11.1 5.9 22.8 5.4 34.6 0.8 11.9-0.8 23.7-4.8 34.9-4 11.2-10.2 21.5-18.2 30.2-8.1 8.7-17.8 15.7-28.6 20.5-10.9 4.8-22.6 7.4-34.4 7.6zm-343.6-492.6c-3.3-3.2-27.9 8.7-53.5 11.4-8.9 0.1-17.7 1-26.3 2.7-8.7 1.8-17.2 4.3-25.4 7.7-8.2 3.3-16 7.5-23.4 12.3-7.4 4.9-14.3 10.4-20.7 16.6-48 46.7-23.3 114.8-21.4 110-1.5-8.7-2-17.4-1.4-26.2 0.6-8.7 2.2-17.3 4.8-25.7 2.7-8.3 6.3-16.3 10.9-23.8 4.5-7.5 10-14.4 16.2-20.6 7.5-6.6 15.6-12.4 24.2-17.4 8.6-5 17.8-9.2 27.2-12.4 9.4-3.2 19.2-5.4 29.1-6.7 9.9-1.3 19.9-1.6 29.8-0.9 0-0.1-4.9 73.7-42.5 109.6-4.4 4.5-9.1 8.7-14.2 12.3-5.1 3.7-10.5 6.9-16.2 9.7-5.7 2.7-11.6 4.9-17.6 6.5-6.1 1.7-12.3 2.8-18.5 3.4l1.7-8.2q1.7-10.8 4.8-21.3c2.2-6.6 5.3-12.9 9.2-18.7q1.5-2.2 3.1-4.3 1.6-2.1 3.3-4.2 1.7-2 3.5-4 1.7-2 3.6-3.9c1.3-1.3 2.4-2.7 3.7-3.9 0.3-0.2 3.1-2.7 2.3-3.2-0.7-0.3-1.7 0-2.4 0.3q-0.5 0.1-1.1 0.3-0.6 0.2-1.2 0.5-0.5 0.2-1.1 0.5-0.5 0.3-1.1 0.6-3.2 1.7-6.2 3.9-3.9 2.8-7.4 6.2-4.4 4.1-8.2 8.8-1.1 1.4-2.2 2.8-1.1 1.5-2.2 2.9-1 1.5-2 3-1 1.5-2 3-4.5 7.2-8.1 14.9c-3.4 7.3-5.9 15.1-9.2 22.5q-1.3 2.8-2.7 5.5-1.3 2.8-2.8 5.5-1.5 2.7-3.1 5.3-1.6 2.7-3.3 5.3-1.2 2-2.8 3.8-1.6 1.8-3.5 3.2-1.9 1.5-4.1 2.5-2.1 1-4.5 1.5-3.7 0.8-7.4 0.9-1.9 0.1-3.8 0.3-1.9 0.3-3.7 0.8-1.8 0.5-3.5 1.3-1.8 0.7-3.4 1.7c-1.8 1.3-3.4 2.9-4.7 4.8-1.2 1.9-2.1 4-2.5 6.2-0.5 2.2-0.5 4.5-0.1 6.7 0.3 2.2 1.1 4.4 2.3 6.3 4.9 7.6 17.9 7.7 25.6 5.1q3.3-1.6 6.4-3.6 3.1-2 5.9-4.3 2.8-2.4 5.2-5.2 2.5-2.7 4.5-5.8l0.8-1q0.6-0.8 1.2-1.6c0.4-0.6 1-1.3 1.4-2l1.8-2.4 2-2.6 2-2.7 2-2.7 2-2.7c0.6-0.9 1.2-1.6 1.8-2.5 0.6-0.8 1.1-1.4 1.6-2.1l1.3-1.8 0.7-0.9q0-0.1 0.1-0.2 0.1-0.1 0.2-0.2 0.1-0.1 0.2-0.2 0-0.1 0.1-0.2 0.3-0.2 0.5-0.3 0.3-0.1 0.6-0.2 0.2-0.1 0.5-0.2 0.3-0.1 0.6-0.1 1-0.1 2-0.1h0.8l0.9-0.1q3.3-0.4 6.6-1 3.3-0.5 6.6-1.2 3.3-0.7 6.5-1.5 3.3-0.9 6.5-1.8 4.7-1.4 9.3-3 4.5-1.7 9-3.7 4.4-2.1 8.7-4.4 4.3-2.4 8.4-5.1 6.3-4.2 11.7-9.6c43.2-42.2 47.9-91.7 54-115.2 6-23.5 15-38.4 11.7-41.5z"/>
</svg>